<svg id="Capa_1" enable-background="new 0 0 512 512" height="512" viewBox="0 0 512 512" width="512" xmlns="http://www.w3.org/2000/svg"><g><g><path d="m407.342 460.862c-68.184 68.184-178.732 68.184-246.916 0l-17.321-17.321 88.287-88.287 17.161 17.161c19.424 19.424 50.917 19.424 70.342 0 19.424-19.424 19.424-50.917 0-70.341l-17.161-17.161 88.287-88.287 17.322 17.322c68.183 68.182 68.183 178.73-.001 246.914z" fill="#f1d0a5"/><path d="m398.089 315.969c-21.89-23.974-51.076-36.483-80.216-47.197l72.148-72.148 17.322 17.322c56.669 56.669 66.231 142.598 28.702 209.151 1.654-37.289-16.066-83.153-37.956-107.128z" fill="#f1b986"/></g><g><path d="m351.574 51.138 17.321 17.321-.001.001c11.309 11.31 11.58 30.698 2.491 49.668-3.982 8.328-9.777 16.584-17.23 24.037-7.39 7.39-15.573 13.155-23.829 17.126-19.034 9.194-38.526 8.964-49.877-2.387-.829-.829-1.591-1.705-2.301-2.617l-14.701-14.701c-19.424-19.424-50.917-19.424-70.342 0-19.424 19.424-19.424 50.917 0 70.341l14.701 14.702c.912.711 1.788 1.473 2.617 2.301 11.351 11.351 11.581 30.844 2.387 49.877-3.971 8.256-9.736 16.438-17.126 23.828-7.453 7.453-15.708 13.248-24.037 17.23-18.971 9.089-38.359 8.818-49.668-2.491l-.001.001-17.322-17.322c-68.183-68.184-68.183-178.732.001-246.915 68.185-68.184 178.733-68.184 246.917 0z" fill="#f1d0a5"/><path d="m351.574 51.138 17.321 17.321-.001.001c11.309 11.31 11.58 30.698 2.491 49.668-.494 1.033-1.016 2.065-1.566 3.094-18.65-23.732-43.717-44.145-73.988-58.49-91.421-43.323-195.637-14.916-232.772 63.449-2.645 5.582-4.865 11.27-6.699 17.031 6.132-33.727 22.223-65.999 48.297-92.073 68.185-68.185 178.733-68.185 246.917-.001z" fill="#f1b986"/></g><g><path d="m283.846 486.305c-34.999 0-68.698-12.168-95.501-34.608-.175-.146-.343-.3-.504-.461l-16.409-16.409c-3.018-3.017-3.018-7.909 0-10.927 3.017-3.017 7.909-3.017 10.927 0l16.164 16.164c52.499 43.722 131.395 40.127 179.767-8.254 48.38-48.371 51.978-127.269 8.255-179.769l-16.761-16.761c-3.017-3.017-3.017-7.909 0-10.927 3.018-3.017 7.909-3.017 10.928 0l17.006 17.006c.161.161.314.329.461.504 23.776 28.4 36.02 64.542 34.478 101.768-1.552 37.455-16.98 72.652-43.439 99.106-26.453 26.458-61.649 41.885-99.105 43.437-2.094.087-4.183.131-6.267.131z" fill="#e7a561"/></g><g><path d="m283.724 428.034c-19.418 0-38.369-6.186-53.962-17.72-.308-.228-.598-.478-.869-.748l-17.645-17.645c-3.018-3.017-3.018-7.909 0-10.927 3.017-3.017 7.909-3.017 10.927 0l17.228 17.228c29.703 21.625 71.57 18.367 97.617-7.681 26.046-26.047 29.301-67.91 7.671-97.607l-16.567-16.567c-3.017-3.017-3.017-7.909 0-10.927 3.019-3.018 7.91-3.017 10.928 0l16.983 16.983c.27.27.52.56.746.867 12.801 17.298 19.018 38.727 17.507 60.341-1.526 21.836-10.88 42.376-26.34 57.836s-36.002 24.815-57.841 26.343c-2.131.149-4.26.224-6.383.224z" fill="#e7a561"/></g><g fill="#e7a561"><path d="m333.456 69.26c-3.136-3.136-6.438-6.152-9.802-8.956-28.398-23.774-64.543-36.022-101.768-34.475-37.455 1.552-72.652 16.976-99.107 43.431s-41.879 61.651-43.431 99.107c-1.543 37.227 10.701 73.369 34.456 101.744 2.764 3.328 5.784 6.634 8.976 9.825l41.118 41.111c2.577-.886 5.167-1.944 7.749-3.181 2.37-1.133 4.73-2.429 7.071-3.852l-45.012-45.005c-2.857-2.857-5.553-5.808-8.034-8.795-43.949-52.496-40.42-131.574 8.034-180.028 48.454-48.453 127.533-51.981 180.041-8.023 3.02 2.517 5.974 5.216 8.781 8.023l45.005 45.013c1.423-2.341 2.719-4.702 3.852-7.071 1.238-2.583 2.295-5.173 3.181-7.749z"/><path d="m292.5 110.538c-3.189-3.189-6.645-6.166-10.274-8.849-17.306-12.79-38.732-19.001-60.345-17.489-21.832 1.528-42.368 10.882-57.824 26.339s-24.81 35.992-26.338 57.824c-1.513 21.608 4.699 43.039 17.49 60.349 2.684 3.627 5.66 7.083 8.848 10.271l44.885 44.884c1.428-2.336 2.73-4.693 3.868-7.058 1.243-2.574 2.308-5.155 3.202-7.725l-41.028-41.028c-2.648-2.648-5.121-5.52-7.349-8.532-21.976-29.737-18.817-71.893 7.349-98.059 26.166-26.165 68.322-29.325 98.056-7.351 3.013 2.228 5.884 4.701 8.533 7.351l41.028 41.029c2.569-.894 5.151-1.959 7.725-3.202 2.365-1.138 4.722-2.44 7.059-3.868z"/></g><g fill="#b78b7a"><ellipse cx="187.328" cy="399.317" rx="62.542" ry="41.695" transform="matrix(.707 -.707 .707 .707 -227.493 249.418)"/><ellipse cx="345.797" cy="240.848" rx="62.542" ry="41.695" transform="matrix(.707 -.707 .707 .707 -69.024 315.058)"/></g></g></svg>