<svg id="Capa_1" enable-background="new 0 0 497 497" height="512" viewBox="0 0 497 497" width="512" xmlns="http://www.w3.org/2000/svg"><g><g><path d="m424.488 254.139-47.648-154.497c-4.965-16.1-19.621-26.917-36.469-26.917h-183.743c-16.848 0-31.503 10.817-36.468 26.917l-47.647 154.497-52.558-16.209 47.648-154.497c5.911-19.166 17.565-35.591 33.702-47.502 16.137-11.91 35.268-18.206 55.324-18.206h183.743c20.057 0 39.188 6.295 55.324 18.206 16.138 11.91 27.791 28.336 33.701 47.502l47.648 154.497z" fill="#f9f097"/></g><path d="m248.5 244.667-221.708 37.075 34.174 135.354c9.231 36.561 42.12 62.178 79.828 62.178h215.411c37.709 0 70.597-25.617 79.828-62.178l34.174-135.354z" fill="#f0ac99"/><path d="m26.792 281.742 7.575 30h428.266l7.575-30-221.708-37.075z" fill="#e7886e"/><path d="m470.208 207.592h-443.416c-14.797 0-26.792 11.995-26.792 26.792v20.565c0 14.797 11.995 26.792 26.792 26.792h443.415c14.797 0 26.792-11.995 26.792-26.792v-20.565c.001-14.797-11.994-26.792-26.791-26.792z" fill="#f0ac99"/><path d="m245.14 305.389-45.8 48.9 25.188 26.893c11.159 11.914 30.065 11.915 41.226.002l25.196-26.895z" fill="#e8e8e8"/><path d="m245.14 207.589-45.8 48.9-45.81-48.9z" fill="#ff748f"/><path d="m336.75 207.589-45.8 48.9-45.81-48.9z" fill="#ff748f"/><path d="m382.56 256.489-45.81 48.9-45.8-48.9 45.8-48.9z" fill="#e8e8e8"/><path d="m428.36 207.589-45.8 48.9-45.81-48.9z" fill="#ff748f"/><path d="m336.75 305.389-45.8 48.9-45.81-48.9 45.81-48.9z" fill="#ff748f"/><path d="m290.95 256.489-45.81 48.9-45.8-48.9 45.8-48.9z" fill="#e8e8e8"/><path d="m245.14 305.389-45.8 48.9-45.81-48.9 45.81-48.9z" fill="#ff748f"/><path d="m199.34 256.489-45.81 48.9-45.8-48.9 45.8-48.9z" fill="#e8e8e8"/><path d="m153.53 207.589-45.8 48.9-45.81-48.9z" fill="#ff748f"/><g><g><path d="m182.075 415.279c-4.142 0-7.5-3.358-7.5-7.5 0-5.887-4.79-10.677-10.677-10.677-5.888 0-10.677 4.79-10.677 10.677 0 4.142-3.358 7.5-7.5 7.5s-7.5-3.358-7.5-7.5c0-14.158 11.519-25.677 25.677-25.677s25.677 11.519 25.677 25.677c0 4.142-3.358 7.5-7.5 7.5z" fill="#423e4f"/></g><g><path d="m344.559 415.279c-4.142 0-7.5-3.358-7.5-7.5 0-5.887-4.79-10.677-10.677-10.677s-10.677 4.79-10.677 10.677c0 4.142-3.358 7.5-7.5 7.5s-7.5-3.358-7.5-7.5c0-14.158 11.519-25.677 25.677-25.677 14.159 0 25.677 11.519 25.677 25.677 0 4.142-3.358 7.5-7.5 7.5z" fill="#423e4f"/></g><g><path d="m245.14 445.309c-9.557 0-18.646-4.139-24.936-11.356-2.722-3.123-2.396-7.86.726-10.582 3.122-2.721 7.86-2.396 10.582.726 3.441 3.948 8.408 6.212 13.628 6.212s10.187-2.264 13.627-6.212c2.721-3.123 7.458-3.448 10.582-.726 3.123 2.722 3.448 7.459.726 10.582-6.29 7.216-15.378 11.356-24.935 11.356z" fill="#423e4f"/></g></g></g></svg>